<?xml version="1.0" encoding="UTF-8"?>
<svg width="32px" height="32px" viewBox="0 0 32 32" version="1.1" xmlns="http://www.w3.org/2000/svg" xmlns:xlink="http://www.w3.org/1999/xlink">
    <!-- Generator: Sketch 51.2 (57519) - http://www.bohemiancoding.com/sketch -->
    <title>btn_main_copy_normal</title>
    <desc>Created with Sketch.</desc>
    <defs></defs>
    <g id="btn_main_copy_normal" stroke="none" stroke-width="1" fill="none" fill-rule="evenodd">
        <polygon id="Fill-1" points="0 32.0001 32 32.0001 32 0.0001 0 0.0001"></polygon>
        <path d="M10.9995595,9.99976926 L16.9996459,9.99976926 L16.9996459,11.9999018 L10.9995595,11.9999018 L10.9995595,9.99976926 Z M8.99999914,19.9998296 L18.9994973,19.9998296 C18.9994973,15.9995846 18.9997784,11.9996107 18.9997784,7.99992784 L8.99999914,7.99992784 L8.99999914,19.9998296 Z M11.0004027,21.9999622 L6.99987663,21.9999622 L6.99987663,5.99980534 L20.9999009,5.99980534 L20.9999009,9.99976926 L25.000156,9.99976926 L25.000156,25.9999261 L11.0004027,25.9999261 L11.0004027,21.9999622 Z M20.9999009,11.9999018 L20.9999009,21.9999622 C18.3333554,21.9999622 15.6670809,21.9999622 13.0005353,21.9999622 L13.0005353,23.9998036 L23.0000235,23.9998036 L23.0000235,11.9999018 L20.9999009,11.9999018 Z M10.9995595,15.9995846 L16.9996459,15.9995846 L16.9996459,17.9997071 L10.9995595,17.9997071 L10.9995595,15.9995846 Z M10.9995595,12.999682 L16.9996459,12.999682 L16.9996459,14.9998045 L10.9995595,14.9998045 L10.9995595,12.999682 Z" id="Shape" fill="#2879BD" fill-rule="nonzero"></path>
    </g>
</svg>