<?xml version="1.0" encoding="UTF-8"?>
<svg width="32px" height="32px" viewBox="0 0 32 32" version="1.1" xmlns="http://www.w3.org/2000/svg" xmlns:xlink="http://www.w3.org/1999/xlink">
    <!-- Generator: Sketch 51.2 (57519) - http://www.bohemiancoding.com/sketch -->
    <title>btn_main_delete_normal</title>
    <desc>Created with Sketch.</desc>
    <defs></defs>
    <g id="btn_main_delete_normal" stroke="none" stroke-width="1" fill="none" fill-rule="evenodd">
        <polygon id="Fill-1" points="0 32 32 32 32 0 0 0"></polygon>
        <path d="M9.46913455,8.99886472 L11.468976,5.99953428 L20.5324722,5.99953428 L22.5323136,8.99886472 L26.0007794,8.99886472 L26.0007794,10.9989973 L23.9340478,10.9989973 L22.9351109,25.9996551 L9.06632722,25.9996551 L8.06626597,10.9989973 L6.00065866,10.9989973 L6.00065866,8.99886472 C7.15690764,8.99886472 8.31288557,8.99886472 9.46913455,8.99886472 Z M15.0000956,12.9991198 L15.0000956,21.9991189 L12.9999631,21.9991189 L12.9999631,12.9991198 L15.0000956,12.9991198 Z M19.0003406,12.9991198 L19.0003406,21.9991189 L17.0002181,21.9991189 L17.0002181,12.9991198 L19.0003406,12.9991198 Z M11.8652579,8.99886472 L20.1358991,8.99886472 L19.469476,7.99965679 L12.531681,7.99965679 L11.8652579,8.99886472 Z M21.9327808,10.9995595 L10.0672418,10.9995595 L10.9337936,23.9995326 L21.0670823,23.9995326 L21.9327808,10.9995595 Z" id="Shape" fill="#C8C8C8" fill-rule="nonzero"></path>
    </g>
</svg>